<svg width="83" height="28" viewBox="0 0 83 28" fill="none" xmlns="http://www.w3.org/2000/svg">
<rect width="28" height="28" rx="8" fill="#007FFF"/>
<path d="M7 14L11.6612 18.5L21 9.5" stroke="white" stroke-width="2.5" stroke-linecap="round" stroke-linejoin="round"/>
<path d="M47.7898 7V9.08H43.3298V21H41.2498V9.08H36.7998V7H47.7898Z" fill="#3F3D56"/>
<path d="M56.054 11H58.134V21H56.044L55.964 19.55C55.6707 20.0633 55.274 20.4767 54.774 20.79C54.274 21.1033 53.684 21.26 53.004 21.26C52.2707 21.26 51.5807 21.1233 50.934 20.85C50.2874 20.57 49.7174 20.1833 49.224 19.69C48.7374 19.1967 48.3574 18.63 48.084 17.99C47.8107 17.3433 47.674 16.65 47.674 15.91C47.674 15.1967 47.8074 14.5267 48.074 13.9C48.3407 13.2667 48.7107 12.7133 49.184 12.24C49.6574 11.7667 50.204 11.3967 50.824 11.13C51.4507 10.8567 52.1207 10.72 52.834 10.72C53.5607 10.72 54.2007 10.8867 54.754 11.22C55.314 11.5467 55.7774 11.9667 56.144 12.48L56.054 11ZM52.954 19.25C53.5407 19.25 54.054 19.1067 54.494 18.82C54.934 18.5267 55.274 18.1333 55.514 17.64C55.7607 17.1467 55.884 16.6 55.884 16C55.884 15.3933 55.7607 14.8433 55.514 14.35C55.2674 13.8567 54.924 13.4667 54.484 13.18C54.0507 12.8867 53.5407 12.74 52.954 12.74C52.374 12.74 51.844 12.8867 51.364 13.18C50.884 13.4733 50.504 13.8667 50.224 14.36C49.944 14.8533 49.804 15.4 49.804 16C49.804 16.6067 49.9474 17.1567 50.234 17.65C50.5274 18.1367 50.9107 18.5267 51.384 18.82C51.864 19.1067 52.3874 19.25 52.954 19.25Z" fill="#3F3D56"/>
<path d="M63.1295 21.19C62.6028 21.1567 62.0895 21.05 61.5895 20.87C61.0895 20.69 60.6495 20.4467 60.2695 20.14C59.8962 19.8267 59.6162 19.46 59.4295 19.04L61.1995 18.28C61.2862 18.46 61.4362 18.6367 61.6495 18.81C61.8695 18.9833 62.1262 19.1267 62.4195 19.24C62.7128 19.3467 63.0195 19.4 63.3395 19.4C63.6528 19.4 63.9428 19.3567 64.2095 19.27C64.4828 19.1767 64.7062 19.0367 64.8795 18.85C65.0528 18.6633 65.1395 18.44 65.1395 18.18C65.1395 17.8867 65.0395 17.66 64.8395 17.5C64.6462 17.3333 64.4028 17.2067 64.1095 17.12C63.8162 17.0333 63.5228 16.95 63.2295 16.87C62.5762 16.7233 61.9762 16.5233 61.4295 16.27C60.8895 16.01 60.4595 15.68 60.1395 15.28C59.8195 14.8733 59.6595 14.3767 59.6595 13.79C59.6595 13.15 59.8328 12.5967 60.1795 12.13C60.5262 11.6567 60.9795 11.2933 61.5395 11.04C62.1062 10.7867 62.7095 10.66 63.3495 10.66C64.1495 10.66 64.8828 10.83 65.5495 11.17C66.2162 11.51 66.7262 11.9767 67.0795 12.57L65.4295 13.55C65.3295 13.35 65.1795 13.17 64.9795 13.01C64.7795 12.85 64.5528 12.7233 64.2995 12.63C64.0462 12.53 63.7828 12.4733 63.5095 12.46C63.1695 12.4467 62.8528 12.4867 62.5595 12.58C62.2728 12.6667 62.0428 12.8067 61.8695 13C61.6962 13.1933 61.6095 13.44 61.6095 13.74C61.6095 14.0333 61.7128 14.2533 61.9195 14.4C62.1262 14.54 62.3862 14.6533 62.6995 14.74C63.0195 14.8267 63.3462 14.9233 63.6795 15.03C64.2728 15.2167 64.8295 15.4467 65.3495 15.72C65.8695 15.9867 66.2895 16.3167 66.6095 16.71C66.9295 17.1033 67.0828 17.5833 67.0695 18.15C67.0695 18.7767 66.8795 19.3267 66.4995 19.8C66.1262 20.2733 65.6395 20.6333 65.0395 20.88C64.4395 21.1267 63.8028 21.23 63.1295 21.19Z" fill="#3F3D56"/>
<path d="M77.3318 21H74.9318L72.4718 16.76L70.8618 18.68V21H68.7818V6H70.8618V15.45L74.5818 11H77.3018L73.8918 15.07L77.3318 21Z" fill="#3F3D56"/>
<path d="M78.9186 11H80.9986V21H78.9186V11ZM79.9786 9.55C79.6586 9.55 79.3919 9.44667 79.1786 9.24C78.9652 9.03333 78.8586 8.77333 78.8586 8.46C78.8586 8.15333 78.9652 7.89667 79.1786 7.69C79.3919 7.47667 79.6552 7.37 79.9686 7.37C80.2752 7.37 80.5352 7.47667 80.7486 7.69C80.9619 7.89667 81.0686 8.15333 81.0686 8.46C81.0686 8.77333 80.9619 9.03333 80.7486 9.24C80.5419 9.44667 80.2852 9.55 79.9786 9.55Z" fill="#3F3D56"/>
</svg>
